<?xml version="1.0" encoding="UTF-8" standalone="no"?>
<svg
   xmlns:dc="http://purl.org/dc/elements/1.1/"
   xmlns:cc="http://creativecommons.org/ns#"
   xmlns:rdf="http://www.w3.org/1999/02/22-rdf-syntax-ns#"
   xmlns:svg="http://www.w3.org/2000/svg"
   xmlns="http://www.w3.org/2000/svg"
   xmlns:sodipodi="http://sodipodi.sourceforge.net/DTD/sodipodi-0.dtd"
   xmlns:inkscape="http://www.inkscape.org/namespaces/inkscape"
   version="1.1"
   viewBox="0 0 439.69779 228.00558"
   stroke-miterlimit="10"
   id="svg2"
   inkscape:version="0.48.3.1 r9886"
   width="100%"
   height="100%"
   sodipodi:docname="Jerry Logo.svg"
   style="fill:none;stroke:none">
  <metadata
     id="metadata33">
    <rdf:RDF>
      <cc:Work
         rdf:about="">
        <dc:format>image/svg+xml</dc:format>
        <dc:type
           rdf:resource="http://purl.org/dc/dcmitype/StillImage" />
      </cc:Work>
    </rdf:RDF>
  </metadata>
  <defs
     id="defs31" />
  <sodipodi:namedview
     pagecolor="#ffffff"
     bordercolor="#666666"
     borderopacity="1"
     objecttolerance="10"
     gridtolerance="10"
     guidetolerance="10"
     inkscape:pageopacity="0"
     inkscape:pageshadow="2"
     inkscape:window-width="1920"
     inkscape:window-height="1031"
     id="namedview29"
     showgrid="false"
     fit-margin-top="0"
     fit-margin-left="0"
     fit-margin-right="0"
     fit-margin-bottom="0"
     inkscape:zoom="1.3111111"
     inkscape:cx="184.8222"
     inkscape:cy="174.94368"
     inkscape:window-x="0"
     inkscape:window-y="0"
     inkscape:window-maximized="1"
     inkscape:current-layer="svg2" />
  <clipPath
     id="p.0">
    <path
       d="M 0,0 960,0 960,720 0,720 0,0 z"
       clip-rule="nonzero"
       id="path5"
       inkscape:connector-curvature="0" />
  </clipPath>
  <path
     style="fill:#000000;fill-opacity:0;fill-rule:nonzero"
     inkscape:connector-curvature="0"
     id="path9"
     d="m -285.1875,-195.40063 960,0 0,720 -960,0 z" />
  <g
     id="g3020"
     transform="matrix(1.0036556,0,0,1.0036556,-286.23003,-196.94847)">
    <path
       d="m 317.86288,297.67322 0,6.09525 c 1.71698,0.11447 3.90134,0.4197 6.5531,0.91571 2.67084,0.47696 4.89334,1.17327 6.66754,2.08899 2.06037,1.03018 3.41489,2.2225 4.06351,3.57702 0.66772,1.33542 1.00156,3.0047 1.00156,5.00781 l 0,64.47217 c 0,5.37986 -0.27662,10.2446 -0.82987,14.59424 -0.53415,4.34967 -1.43082,8.01251 -2.68991,10.98862 -1.31635,3.20499 -3.30994,5.7709 -5.98077,7.69772 -2.65177,1.90775 -6.06662,2.86164 -10.24457,2.86164 -4.29245,0 -7.71683,-0.71543 -10.27323,-2.14621 -2.53729,-1.43082 -4.40686,-3.09055 -5.60876,-4.97922 0.45789,-1.43082 1.2305,-3.03333 2.31793,-4.80753 1.0874,-1.7742 2.06037,-3.31946 2.91882,-4.6358 0.91575,-1.43082 1.74561,-3.06192 2.48963,-4.89337 0.74402,-1.83142 1.11603,-3.66287 1.11603,-5.49429 0,-3.14777 -1.04926,-5.67554 -3.14777,-7.58329 -2.07947,-1.92682 -4.83615,-2.89023 -8.27008,-2.89023 -3.83456,0 -6.75342,1.50712 -8.75653,4.52137 -2.00314,2.99514 -3.0047,6.43863 -3.0047,10.33041 0,8.871 2.89978,15.92966 8.69931,21.17596 5.8186,5.22721 13.39233,7.84083 22.72122,7.84083 6.00937,0 11.34152,-1.08744 15.99643,-3.26224 4.67395,-2.17484 8.69928,-5.20816 12.07599,-9.09995 2.91885,-3.31949 5.13183,-7.0968 6.63895,-11.332 1.52621,-4.23517 2.2893,-8.24145 2.2893,-12.01877 l 0,-72.19855 c 0,-1.88864 0.34339,-3.63424 1.03018,-5.23675 0.68677,-1.60251 2.00312,-2.74713 3.94904,-3.43393 1.65973,-0.57233 3.67239,-1.03974 6.03799,-1.40219 2.38468,-0.38156 4.37827,-0.60092 5.98078,-0.65817 l 0,-6.09525 z"
       id="path11"
       inkscape:connector-curvature="0"
       style="fill:#359848;fill-opacity:0.72689999;fill-rule:evenodd" />
    <path
       d="m 400.10568,397.85834 c -3.20502,0 -5.97125,1.16373 -8.29868,3.49118 -2.30838,2.30838 -3.46255,5.06506 -3.46255,8.27008 0,3.20499 1.15417,5.9426 3.46255,8.21283 2.32743,2.25113 5.09366,3.37671 8.29868,3.37671 3.20502,0 5.9617,-1.12558 8.27005,-3.37671 2.32745,-2.27023 3.49118,-5.00784 3.49118,-8.21283 0,-3.20502 -1.16373,-5.9617 -3.49118,-8.27008 -2.30835,-2.32745 -5.06503,-3.49118 -8.27005,-3.49118 z"
       id="path13"
       inkscape:connector-curvature="0"
       style="fill:#359848;fill-opacity:0.72689999;fill-rule:evenodd" />
    <path
       d="m 428.5215,297.67322 0,6.09525 c 2.51822,0.11447 5.06506,0.5437 7.6405,1.28772 2.57547,0.74401 4.75028,1.88867 6.52448,3.43396 1.60251,1.43078 2.83301,3.29083 3.6915,5.58013 0.85849,2.28928 1.28772,5.23676 1.28772,8.84238 l 0,62.32596 c 0,7.7836 -0.37201,13.33515 -1.11603,16.6546 -0.74402,3.31949 -2.11759,5.78046 -4.12073,7.38297 -1.54526,1.25912 -3.73917,2.20346 -6.5817,2.83301 -2.82345,0.62954 -5.52291,1.0588 -8.09838,1.28772 l 0,6.09524 49.19116,0 0,-6.09524 c -1.20188,-0.0572 -3.77735,-0.62955 -7.72635,-1.71698 -3.94904,-1.08741 -6.5531,-2.23206 -7.81223,-3.43393 -1.83142,-1.60251 -3.19546,-4.23517 -4.0921,-7.89804 -0.87756,-3.66288 -1.31634,-9.0141 -1.31634,-16.05365 l 0,-72.71362 1.11602,0 39.57614,105.93695 4.29242,0 41.55066,-103.79074 1.28772,0 0,88.59558 c 0,2.11758 -0.41974,3.88223 -1.25915,5.29397 -0.82031,1.39264 -2.11756,2.63269 -3.89179,3.72009 -1.14465,0.62955 -3.25268,1.11603 -6.32415,1.45945 -3.05237,0.34338 -5.55152,0.5437 -7.49744,0.60092 l 0,6.09524 53.82696,0 0,-6.09524 c -1.54528,-0.0572 -3.63421,-0.32431 -6.2669,-0.80124 -2.63269,-0.49603 -4.46411,-1.03018 -5.49433,-1.60251 -1.94586,-1.03018 -3.2622,-2.23206 -3.94903,-3.60565 -0.68677,-1.37357 -1.03015,-3.06192 -1.03015,-5.06503 l 0,-87.82297 c 0,-1.88865 0.34338,-3.63425 1.03015,-5.23676 0.68683,-1.60251 2.00317,-2.74713 3.94903,-3.43393 1.14466,-0.40063 2.95697,-0.82986 5.43708,-1.28772 2.49914,-0.45785 4.54998,-0.71539 6.15246,-0.77264 l 0,-6.09525 -39.7478,0 c -0.0572,1.03018 -0.47699,3.08103 -1.25916,6.1525 -0.76306,3.05237 -1.68829,5.98077 -2.77575,8.78515 l -29.7894,76.40509 -34.85446,-91.34274 z"
       id="path15"
       inkscape:connector-curvature="0"
       style="fill:#359848;fill-opacity:0.72689999;fill-rule:evenodd" />
    <path
       d="m 317.86288,297.67322 0,6.09525 c 1.71698,0.11447 3.90134,0.4197 6.5531,0.91571 2.67084,0.47696 4.89334,1.17327 6.66754,2.08899 2.06037,1.03018 3.41489,2.2225 4.06351,3.57702 0.66772,1.33542 1.00156,3.0047 1.00156,5.00781 l 0,64.47217 c 0,5.37986 -0.27662,10.2446 -0.82987,14.59424 -0.53415,4.34967 -1.43082,8.01251 -2.68991,10.98862 -1.31635,3.20499 -3.30994,5.7709 -5.98077,7.69772 -2.65177,1.90775 -6.06662,2.86164 -10.24457,2.86164 -4.29245,0 -7.71683,-0.71543 -10.27323,-2.14621 -2.53729,-1.43082 -4.40686,-3.09055 -5.60876,-4.97922 0.45789,-1.43082 1.2305,-3.03333 2.31793,-4.80753 1.0874,-1.7742 2.06037,-3.31946 2.91882,-4.6358 0.91575,-1.43082 1.74561,-3.06192 2.48963,-4.89337 0.74402,-1.83142 1.11603,-3.66287 1.11603,-5.49429 0,-3.14777 -1.04926,-5.67554 -3.14777,-7.58329 -2.07947,-1.92682 -4.83615,-2.89023 -8.27008,-2.89023 -3.83456,0 -6.75342,1.50712 -8.75653,4.52137 -2.00314,2.99514 -3.0047,6.43863 -3.0047,10.33041 0,8.871 2.89978,15.92966 8.69931,21.17596 5.8186,5.22721 13.39233,7.84083 22.72122,7.84083 6.00937,0 11.34152,-1.08744 15.99643,-3.26224 4.67395,-2.17484 8.69928,-5.20816 12.07599,-9.09995 2.91885,-3.31949 5.13183,-7.0968 6.63895,-11.332 1.52621,-4.23517 2.2893,-8.24145 2.2893,-12.01877 l 0,-72.19855 c 0,-1.88864 0.34339,-3.63424 1.03018,-5.23675 0.68677,-1.60251 2.00312,-2.74713 3.94904,-3.43393 1.65973,-0.57233 3.67239,-1.03974 6.03799,-1.40219 2.38468,-0.38156 4.37827,-0.60092 5.98078,-0.65817 l 0,-6.09525 z"
       id="path17"
       inkscape:connector-curvature="0"
       style="stroke:#269878;stroke-width:1.99271536;stroke-linecap:butt;stroke-linejoin:round" />
    <path
       d="m 400.10568,397.85834 c -3.20502,0 -5.97125,1.16373 -8.29868,3.49118 -2.30838,2.30838 -3.46255,5.06506 -3.46255,8.27008 0,3.20499 1.15417,5.9426 3.46255,8.21283 2.32743,2.25113 5.09366,3.37671 8.29868,3.37671 3.20502,0 5.9617,-1.12558 8.27005,-3.37671 2.32745,-2.27023 3.49118,-5.00784 3.49118,-8.21283 0,-3.20502 -1.16373,-5.9617 -3.49118,-8.27008 -2.30835,-2.32745 -5.06503,-3.49118 -8.27005,-3.49118 z"
       id="path19"
       inkscape:connector-curvature="0"
       style="stroke:#269878;stroke-width:1.99271536;stroke-linecap:butt;stroke-linejoin:round" />
    <path
       d="m 428.5215,297.67322 0,6.09525 c 2.51822,0.11447 5.06506,0.5437 7.6405,1.28772 2.57547,0.74401 4.75028,1.88867 6.52448,3.43396 1.60251,1.43078 2.83301,3.29083 3.6915,5.58013 0.85849,2.28928 1.28772,5.23676 1.28772,8.84238 l 0,62.32596 c 0,7.7836 -0.37201,13.33515 -1.11603,16.6546 -0.74402,3.31949 -2.11759,5.78046 -4.12073,7.38297 -1.54526,1.25912 -3.73917,2.20346 -6.5817,2.83301 -2.82345,0.62954 -5.52291,1.0588 -8.09838,1.28772 l 0,6.09524 49.19116,0 0,-6.09524 c -1.20188,-0.0572 -3.77735,-0.62955 -7.72635,-1.71698 -3.94904,-1.08741 -6.5531,-2.23206 -7.81223,-3.43393 -1.83142,-1.60251 -3.19546,-4.23517 -4.0921,-7.89804 -0.87756,-3.66288 -1.31634,-9.0141 -1.31634,-16.05365 l 0,-72.71362 1.11602,0 39.57614,105.93695 4.29242,0 41.55066,-103.79074 1.28772,0 0,88.59558 c 0,2.11758 -0.41974,3.88223 -1.25915,5.29397 -0.82031,1.39264 -2.11756,2.63269 -3.89179,3.72009 -1.14465,0.62955 -3.25268,1.11603 -6.32415,1.45945 -3.05237,0.34338 -5.55152,0.5437 -7.49744,0.60092 l 0,6.09524 53.82696,0 0,-6.09524 c -1.54528,-0.0572 -3.63421,-0.32431 -6.2669,-0.80124 -2.63269,-0.49603 -4.46411,-1.03018 -5.49433,-1.60251 -1.94586,-1.03018 -3.2622,-2.23206 -3.94903,-3.60565 -0.68677,-1.37357 -1.03015,-3.06192 -1.03015,-5.06503 l 0,-87.82297 c 0,-1.88865 0.34338,-3.63425 1.03015,-5.23676 0.68683,-1.60251 2.00317,-2.74713 3.94903,-3.43393 1.14466,-0.40063 2.95697,-0.82986 5.43708,-1.28772 2.49914,-0.45785 4.54998,-0.71539 6.15246,-0.77264 l 0,-6.09525 -39.7478,0 c -0.0572,1.03018 -0.47699,3.08103 -1.25916,6.1525 -0.76306,3.05237 -1.68829,5.98077 -2.77575,8.78515 l -29.7894,76.40509 -34.85446,-91.34274 z"
       id="path21"
       inkscape:connector-curvature="0"
       style="stroke:#269878;stroke-width:1.99271536;stroke-linecap:butt;stroke-linejoin:round" />
    <path
       d="m 722.3163,277.00525 -34.36139,11.44681 0,-22.89362 z m -24.94568,-56.40334 -15.6521,30.85749 -17.28107,-16.18804 z m -60.20392,-23.36044 12.21973,32.188 -24.43946,0 z m -60.21185,23.36044 32.94104,14.66945 -17.28107,16.18804 z m -24.93775,56.40334 34.36139,-11.44681 0,22.89362 z m 24.93775,56.39593 15.65997,-30.85006 17.28107,16.18802 z m 60.21185,23.36786 -12.21973,-32.18802 24.43946,0 z m 60.20392,-23.36786 -32.93317,-14.66204 17.28107,-16.18802 z M 594.59187,277.00525 c 0,-22.02615 19.0614,-39.8819 42.57483,-39.8819 23.51337,0 42.57477,17.85575 42.57477,39.8819 0,22.02615 -19.0614,39.8819 -42.57477,39.8819 -23.51343,0 -42.57483,-17.85575 -42.57483,-39.8819 z"
       id="path23"
       inkscape:connector-curvature="0"
       style="fill:#ffe599;fill-rule:nonzero" />
    <path
       d="m 722.3163,277.00525 -34.36139,11.44681 0,-22.89362 z m -24.94568,-56.40334 -15.6521,30.85749 -17.28107,-16.18804 z m -60.20392,-23.36044 12.21973,32.188 -24.43946,0 z m -60.21185,23.36044 32.94104,14.66945 -17.28107,16.18804 z m -24.93775,56.40334 34.36139,-11.44681 0,22.89362 z m 24.93775,56.39593 15.65997,-30.85006 17.28107,16.18802 z m 60.21185,23.36786 -12.21973,-32.18802 24.43946,0 z m 60.20392,-23.36786 -32.93317,-14.66204 17.28107,-16.18802 z M 594.59187,277.00525 c 0,-22.02615 19.0614,-39.8819 42.57483,-39.8819 23.51337,0 42.57477,17.85575 42.57477,39.8819 0,22.02615 -19.0614,39.8819 -42.57477,39.8819 -23.51343,0 -42.57483,-17.85575 -42.57483,-39.8819 z"
       id="path25"
       inkscape:connector-curvature="0"
       style="stroke:#ff9900;stroke-width:1.99271536;stroke-linecap:butt;stroke-linejoin:round" />
  </g>
</svg>
