<?xml version="1.0" encoding="UTF-8" standalone="no"?>
<svg
   xmlns:dc="http://purl.org/dc/elements/1.1/"
   xmlns:cc="http://creativecommons.org/ns#"
   xmlns:rdf="http://www.w3.org/1999/02/22-rdf-syntax-ns#"
   xmlns:svg="http://www.w3.org/2000/svg"
   xmlns="http://www.w3.org/2000/svg"
   xmlns:sodipodi="http://sodipodi.sourceforge.net/DTD/sodipodi-0.dtd"
   xmlns:inkscape="http://www.inkscape.org/namespaces/inkscape"
   version="1.1"
   viewBox="0 0 299.94451 129.10055"
   stroke-miterlimit="10"
   id="svg2"
   inkscape:version="0.48.3.1 r9886"
   width="100%"
   height="100%"
   sodipodi:docname="Jerry Logo.svg"
   style="fill:none;stroke:none">
  <metadata
     id="metadata33">
    <rdf:RDF>
      <cc:Work
         rdf:about="">
        <dc:format>image/svg+xml</dc:format>
        <dc:type
           rdf:resource="http://purl.org/dc/dcmitype/StillImage" />
        <dc:title></dc:title>
      </cc:Work>
    </rdf:RDF>
  </metadata>
  <defs
     id="defs31" />
  <sodipodi:namedview
     pagecolor="#ffffff"
     bordercolor="#666666"
     borderopacity="1"
     objecttolerance="10"
     gridtolerance="10"
     guidetolerance="10"
     inkscape:pageopacity="0"
     inkscape:pageshadow="2"
     inkscape:window-width="1920"
     inkscape:window-height="1006"
     id="namedview29"
     showgrid="false"
     fit-margin-top="0"
     fit-margin-left="0"
     fit-margin-right="0"
     fit-margin-bottom="0"
     inkscape:zoom="1.8541911"
     inkscape:cx="345.66405"
     inkscape:cy="96.784848"
     inkscape:window-x="1920"
     inkscape:window-y="25"
     inkscape:window-maximized="1"
     inkscape:current-layer="svg2" />
  <clipPath
     id="p.0">
    <path
       d="M 0,0 960,0 960,720 0,720 0,0 z"
       clip-rule="nonzero"
       id="path5"
       inkscape:connector-curvature="0" />
  </clipPath>
  <path
     style="fill:#000000;fill-opacity:0;fill-rule:nonzero"
     inkscape:connector-curvature="0"
     id="path9"
     d="m -285.21921,-294.29997 960,0 0,720 -960,0 z" />
  <g
     id="g3773"
     transform="matrix(1.0150402,0,0,1.0150402,-0.03172001,-102.32861)">
    <path
       d="m 32.79483,101.81292 0,6.11754 c 1.723256,0.11488 3.915601,0.42123 6.577055,0.91905 2.680604,0.47871 4.911228,1.17756 6.691914,2.09663 2.067902,1.03395 3.427373,2.23062 4.078364,3.5901 0.670161,1.3403 1.005222,3.01568 1.005222,5.02611 l 0,64.70786 c 0,5.39952 -0.277631,10.28205 -0.832904,14.64759 -0.536103,4.36557 -1.43605,8.0418 -2.699743,11.02879 -1.321162,3.2167 -3.32204,5.79199 -6.002633,7.72586 -2.661464,1.91472 -6.088798,2.8721 -10.28202,2.8721 -4.308142,0 -7.74504,-0.71805 -10.310785,-2.15406 -2.546566,-1.43605 -4.42297,-3.10184 -5.629264,-4.99742 0.459564,-1.43605 1.234999,-3.04442 2.326404,-4.8251 1.091375,-1.78069 2.067902,-3.3316 2.92949,-4.65275 0.919097,-1.43605 1.751991,-3.07311 2.498731,-4.91126 0.74674,-1.83811 1.12011,-3.67626 1.12011,-5.51437 0,-3.15928 -1.053096,-5.69629 -3.159277,-7.61101 -2.087072,-1.93387 -4.853829,-2.9008 -8.300312,-2.9008 -3.8485781,0 -6.7781083,1.51263 -8.7885408,4.5379 -2.0104627,3.00609 -3.015684,6.46217 -3.015684,10.36817 0,8.90343 2.9103804,15.98789 8.7311112,21.25337 5.8398706,5.24632 13.4412866,7.8695 22.8042796,7.8695 6.031338,0 11.38298,-1.09142 16.054907,-3.27417 4.691036,-2.18279 8.731081,-5.2272 12.120135,-9.13322 2.92952,-3.33162 5.15059,-7.12274 6.663219,-11.37342 1.531789,-4.25065 2.297669,-8.27158 2.297669,-12.06271 l 0,-72.46248 c 0,-1.89554 0.344645,-3.64752 1.033946,-5.25589 0.68928,-1.60837 2.010442,-2.75717 3.963476,-3.44648 1.665797,-0.57442 3.685815,-1.04354 6.060062,-1.40732 2.393398,-0.38295 4.394275,-0.60311 6.002644,-0.66057 l 0,-6.11754 z"
       id="path11"
       inkscape:connector-curvature="0"
       style="fill:#359848;fill-opacity:0.72689999;fill-rule:evenodd" />
    <path
       d="m 115.33828,202.36428 c -3.21674,0 -5.99308,1.16799 -8.32902,3.50394 -2.31682,2.31682 -3.47521,5.08358 -3.47521,8.30032 0,3.2167 1.15839,5.96432 3.47521,8.24285 2.33594,2.25936 5.11228,3.38905 8.32902,3.38905 3.21673,0 5.98349,-1.12969 8.30028,-3.38905 2.33596,-2.27853 3.50394,-5.02615 3.50394,-8.24285 0,-3.21674 -1.16798,-5.9835 -3.50394,-8.30032 -2.31679,-2.33595 -5.08355,-3.50394 -8.30028,-3.50394 z"
       id="path13"
       inkscape:connector-curvature="0"
       style="fill:#359848;fill-opacity:0.72689999;fill-rule:evenodd" />
    <path
       d="m 143.85797,101.81292 0,6.11754 c 2.52743,0.11488 5.08358,0.54568 7.66843,1.29242 2.58489,0.74673 4.76765,1.89558 6.54833,3.44652 1.60837,1.43601 2.84337,3.30286 3.705,5.60053 0.86163,2.29764 1.29243,5.2559 1.29243,8.8747 l 0,62.5538 c 0,7.81205 -0.37337,13.3839 -1.12011,16.71548 -0.74674,3.33163 -2.12533,5.80159 -4.1358,7.40996 -1.55091,1.26372 -3.75284,2.21152 -6.60576,2.84337 -2.83377,0.63184 -5.5431,1.06267 -8.12798,1.29242 l 0,6.11753 49.37098,0 0,-6.11753 c -1.20627,-0.0574 -3.79116,-0.63185 -7.75459,-1.72325 -3.96348,-1.09139 -6.57706,-2.24022 -7.84079,-3.44649 -1.83812,-1.60836 -3.20714,-4.25065 -4.10706,-7.92691 -0.88077,-3.67627 -1.32115,-9.04705 -1.32115,-16.11233 l 0,-72.97944 1.1201,0 39.72081,106.32422 4.30811,0 41.70256,-104.17016 1.29242,0 0,88.91945 c 0,2.12532 -0.42127,3.89642 -1.26375,5.31332 -0.82331,1.39773 -2.1253,2.64232 -3.90602,3.73369 -1.14883,0.63185 -3.26457,1.12011 -6.34726,1.46479 -3.06353,0.34463 -5.57182,0.54568 -7.52485,0.60311 l 0,6.11753 54.02373,0 0,-6.11753 c -1.55093,-0.0574 -3.6475,-0.32549 -6.28981,-0.80417 -2.64232,-0.49784 -4.48043,-1.03394 -5.51442,-1.60836 -1.95297,-1.03395 -3.27412,-2.24022 -3.96346,-3.61883 -0.68928,-1.3786 -1.03392,-3.07312 -1.03392,-5.08355 l 0,-88.14402 c 0,-1.89555 0.34464,-3.64753 1.03392,-5.2559 0.68934,-1.60837 2.01049,-2.75717 3.96346,-3.44648 1.14885,-0.4021 2.96778,-0.8329 5.45696,-1.29243 2.50827,-0.45952 4.56661,-0.718 6.17495,-0.77546 l 0,-6.11754 -39.8931,0 c -0.0574,1.03395 -0.47874,3.0923 -1.26377,6.175 -0.76584,3.06352 -1.69446,6.00263 -2.78589,8.81726 l -29.8983,76.6844 -34.98187,-91.67666 z"
       id="path15"
       inkscape:connector-curvature="0"
       style="fill:#359848;fill-opacity:0.72689999;fill-rule:evenodd" />
    <path
       d="m 32.79483,101.81292 0,6.11754 c 1.723256,0.11488 3.915601,0.42123 6.577055,0.91905 2.680604,0.47871 4.911228,1.17756 6.691914,2.09663 2.067902,1.03395 3.427373,2.23062 4.078364,3.5901 0.670161,1.3403 1.005222,3.01568 1.005222,5.02611 l 0,64.70786 c 0,5.39952 -0.277631,10.28205 -0.832904,14.64759 -0.536103,4.36557 -1.43605,8.0418 -2.699743,11.02879 -1.321162,3.2167 -3.32204,5.79199 -6.002633,7.72586 -2.661464,1.91472 -6.088798,2.8721 -10.28202,2.8721 -4.308142,0 -7.74504,-0.71805 -10.310785,-2.15406 -2.546566,-1.43605 -4.42297,-3.10184 -5.629264,-4.99742 0.459564,-1.43605 1.234999,-3.04442 2.326404,-4.8251 1.091375,-1.78069 2.067902,-3.3316 2.92949,-4.65275 0.919097,-1.43605 1.751991,-3.07311 2.498731,-4.91126 0.74674,-1.83811 1.12011,-3.67626 1.12011,-5.51437 0,-3.15928 -1.053096,-5.69629 -3.159277,-7.61101 -2.087072,-1.93387 -4.853829,-2.9008 -8.300312,-2.9008 -3.8485781,0 -6.7781083,1.51263 -8.7885408,4.5379 -2.0104627,3.00609 -3.015684,6.46217 -3.015684,10.36817 0,8.90343 2.9103804,15.98789 8.7311112,21.25337 5.8398706,5.24632 13.4412866,7.8695 22.8042796,7.8695 6.031338,0 11.38298,-1.09142 16.054907,-3.27417 4.691036,-2.18279 8.731081,-5.2272 12.120135,-9.13322 2.92952,-3.33162 5.15059,-7.12274 6.663219,-11.37342 1.531789,-4.25065 2.297669,-8.27158 2.297669,-12.06271 l 0,-72.46248 c 0,-1.89554 0.344645,-3.64752 1.033946,-5.25589 0.68928,-1.60837 2.010442,-2.75717 3.963476,-3.44648 1.665797,-0.57442 3.685815,-1.04354 6.060062,-1.40732 2.393398,-0.38295 4.394275,-0.60311 6.002644,-0.66057 l 0,-6.11754 z"
       id="path17"
       inkscape:connector-curvature="0"
       style="stroke:#269878;stroke-width:1.97036517;stroke-linecap:butt;stroke-linejoin:round" />
    <path
       d="m 115.33828,202.36428 c -3.21674,0 -5.99308,1.16799 -8.32902,3.50394 -2.31682,2.31682 -3.47521,5.08358 -3.47521,8.30032 0,3.2167 1.15839,5.96432 3.47521,8.24285 2.33594,2.25936 5.11228,3.38905 8.32902,3.38905 3.21673,0 5.98349,-1.12969 8.30028,-3.38905 2.33596,-2.27853 3.50394,-5.02615 3.50394,-8.24285 0,-3.21674 -1.16798,-5.9835 -3.50394,-8.30032 -2.31679,-2.33595 -5.08355,-3.50394 -8.30028,-3.50394 z"
       id="path19"
       inkscape:connector-curvature="0"
       style="stroke:#269878;stroke-width:1.97036517;stroke-linecap:butt;stroke-linejoin:round" />
    <path
       d="m 143.85797,101.81292 0,6.11754 c 2.52743,0.11488 5.08358,0.54568 7.66843,1.29242 2.58489,0.74673 4.76765,1.89558 6.54833,3.44652 1.60837,1.43601 2.84337,3.30286 3.705,5.60053 0.86163,2.29764 1.29243,5.2559 1.29243,8.8747 l 0,62.5538 c 0,7.81205 -0.37337,13.3839 -1.12011,16.71548 -0.74674,3.33163 -2.12533,5.80159 -4.1358,7.40996 -1.55091,1.26372 -3.75284,2.21152 -6.60576,2.84337 -2.83377,0.63184 -5.5431,1.06267 -8.12798,1.29242 l 0,6.11753 49.37098,0 0,-6.11753 c -1.20627,-0.0574 -3.79116,-0.63185 -7.75459,-1.72325 -3.96348,-1.09139 -6.57706,-2.24022 -7.84079,-3.44649 -1.83812,-1.60836 -3.20714,-4.25065 -4.10706,-7.92691 -0.88077,-3.67627 -1.32115,-9.04705 -1.32115,-16.11233 l 0,-72.97944 1.1201,0 39.72081,106.32422 4.30811,0 41.70256,-104.17016 1.29242,0 0,88.91945 c 0,2.12532 -0.42127,3.89642 -1.26375,5.31332 -0.82331,1.39773 -2.1253,2.64232 -3.90602,3.73369 -1.14883,0.63185 -3.26457,1.12011 -6.34726,1.46479 -3.06353,0.34463 -5.57182,0.54568 -7.52485,0.60311 l 0,6.11753 54.02373,0 0,-6.11753 c -1.55093,-0.0574 -3.6475,-0.32549 -6.28981,-0.80417 -2.64232,-0.49784 -4.48043,-1.03394 -5.51442,-1.60836 -1.95297,-1.03395 -3.27412,-2.24022 -3.96346,-3.61883 -0.68928,-1.3786 -1.03392,-3.07312 -1.03392,-5.08355 l 0,-88.14402 c 0,-1.89555 0.34464,-3.64753 1.03392,-5.2559 0.68934,-1.60837 2.01049,-2.75717 3.96346,-3.44648 1.14885,-0.4021 2.96778,-0.8329 5.45696,-1.29243 2.50827,-0.45952 4.56661,-0.718 6.17495,-0.77546 l 0,-6.11754 -39.8931,0 c -0.0574,1.03395 -0.47874,3.0923 -1.26377,6.175 -0.76584,3.06352 -1.69446,6.00263 -2.78589,8.81726 l -29.8983,76.6844 -34.98187,-91.67666 z"
       id="path21"
       inkscape:connector-curvature="0"
       style="stroke:#269878;stroke-width:1.97036517;stroke-linecap:butt;stroke-linejoin:round" />
  </g>
  <g
     id="g3769"
     transform="translate(206.52737,-108.06776)">
    <path
       d="m 438.72677,81.0694 -34.487,11.488655 0,-22.97731 z M 413.6899,24.459872 397.98058,55.430165 380.63634,39.182948 z m -60.424,-23.4458361 12.2644,32.3056661 -24.5288,0 z M 292.83394,24.459872 325.8954,39.182948 308.55115,55.430165 z m -25.02892,56.609528 34.48701,-11.488655 0,22.97731 z m 25.02892,56.60209 15.71721,-30.96283 17.34425,16.24719 z m 60.43196,23.45328 -12.2644,-32.30568 24.5288,0 z m 60.424,-23.45328 -33.05356,-14.71564 17.34424,-16.24719 z M 310.53543,81.0694 c 0,-22.106668 19.13108,-40.027692 42.73047,-40.027692 23.59932,0 42.7304,17.921024 42.7304,40.027692 0,22.10667 -19.13108,40.02769 -42.7304,40.02769 -23.59939,0 -42.73047,-17.92102 -42.73047,-40.02769 z"
       id="path23"
       inkscape:connector-curvature="0"
       style="fill:#ffe599;fill-rule:nonzero" />
    <path
       d="m 438.72677,81.0694 -34.487,11.488655 0,-22.97731 z M 413.6899,24.459872 397.98058,55.430165 380.63634,39.182948 z m -60.424,-23.4458361 12.2644,32.3056661 -24.5288,0 z M 292.83394,24.459872 325.8954,39.182948 308.55115,55.430165 z m -25.02892,56.609528 34.48701,-11.488655 0,22.97731 z m 25.02892,56.60209 15.71721,-30.96283 17.34425,16.24719 z m 60.43196,23.45328 -12.2644,-32.30568 24.5288,0 z m 60.424,-23.45328 -33.05356,-14.71564 17.34424,-16.24719 z M 310.53543,81.0694 c 0,-22.106668 19.13108,-40.027692 42.73047,-40.027692 23.59932,0 42.7304,17.921024 42.7304,40.027692 0,22.10667 -19.13108,40.02769 -42.7304,40.02769 -23.59939,0 -42.73047,-17.92102 -42.73047,-40.02769 z"
       id="path25"
       inkscape:connector-curvature="0"
       style="stroke:#ff9900;stroke-width:1.99999988;stroke-linecap:butt;stroke-linejoin:round" />
  </g>
</svg>
