<?xml version="1.0" encoding="utf-8"?>
<!-- Generator: Adobe Illustrator 16.0.0, SVG Export Plug-In . SVG Version: 6.00 Build 0)  -->
<!DOCTYPE svg PUBLIC "-//W3C//DTD SVG 1.1//EN" "http://www.w3.org/Graphics/SVG/1.1/DTD/svg11.dtd">
<svg version="1.1" id="Layer_1" xmlns="http://www.w3.org/2000/svg" xmlns:xlink="http://www.w3.org/1999/xlink" x="0px" y="0px"
	 width="176px" height="48px" viewBox="0 0 176 48" enable-background="new 0 0 176 48" xml:space="preserve">
<g>
	<path fill="#002856" d="M52.878,38.427V9.343V9.039h16.708c3.765,0,6.697,0.801,8.713,2.316l0,0
		c2.013,1.513,3.069,3.754,3.065,6.489l0,0c0.004,2.719-1.035,4.96-3.028,6.479l0,0c-1.991,1.521-4.892,2.332-8.613,2.332l0,0
		c-0.046,0-0.089,0-0.137,0l0,0H58.467v11.771H52.878L52.878,38.427z M67.911,22.825c0.059,0,0.112,0,0.169,0l0,0
		c2.709,0.002,4.653-0.472,5.89-1.318l0,0c1.229-0.845,1.805-2.037,1.812-3.66l0,0c-0.008-1.638-0.591-2.829-1.848-3.671l0,0
		c-1.264-0.841-3.253-1.307-6.027-1.306l0,0h-9.44v9.955L67.911,22.825L67.911,22.825z M83.795,38.427V9.343V9.039h5.586v25.553
		h19.812v3.835H83.795L83.795,38.427z M133.609,9.039l7.181,23.435L149,9.039h5.827l8.106,23.444l7.439-23.444H176l-10.151,29.182
		l-0.069,0.206h-5.622l0,0l-8.379-23.729l-8.484,23.729h-5.618l-8.52-25.559h-11.433v25.559h-5.584l0,0V12.869H99.666v-3.83H133.609
		z"/>
	<path fill="#002856" d="M40.83,11.188c-0.406-0.655-1.047-1.12-1.812-1.407c-0.767-0.29-1.669-0.416-2.687-0.416
		c-4.758,0.013-12.257,2.783-19.943,7.568c-4.801,2.997-8.862,6.292-11.743,9.372C1.772,29.397,0.028,32.218,0,34.549
		c-0.001,0.655,0.153,1.278,0.488,1.815c0.407,0.655,1.047,1.119,1.812,1.407c0.746,0.281,1.619,0.406,2.601,0.413
		c-0.089-0.275-0.136-0.569-0.136-0.873c0-0.115,0.007-0.229,0.022-0.339c-0.824-0.018-1.524-0.131-2.059-0.333
		c-0.583-0.222-0.967-0.526-1.212-0.915c-0.2-0.322-0.305-0.703-0.308-1.178c-0.025-1.688,1.52-4.447,4.319-7.416
		c2.789-2.979,6.779-6.225,11.503-9.171c7.538-4.717,14.983-7.401,19.301-7.386c0.914-0.001,1.679,0.119,2.257,0.339
		c0.583,0.221,0.97,0.526,1.216,0.916c0.2,0.324,0.304,0.703,0.304,1.175c0.028,1.69-1.518,4.451-4.316,7.418
		c-2.791,2.981-6.781,6.225-11.503,9.174c-5.013,3.135-9.979,5.369-14.021,6.51c0.167,0.361,0.262,0.759,0.266,1.182
		c4.208-1.177,9.258-3.468,14.394-6.669c4.801-2.997,8.861-6.293,11.744-9.372c2.87-3.092,4.618-5.913,4.644-8.245
		C41.319,12.35,41.164,11.725,40.83,11.188z"/>
	<path fill="#002856" d="M6.145,37.312c0.001,0.83,0.676,1.504,1.506,1.504l0,0c0.832,0,1.503-0.674,1.503-1.504l0,0
		c0-0.833-0.672-1.504-1.503-1.506l0,0C6.82,35.808,6.146,36.48,6.145,37.312L6.145,37.312z"/>
	<path fill="#002856" d="M40.082,31.711c-0.29,0.288-0.642,0.512-1.032,0.657c0.494,1.027,0.751,1.932,0.743,2.645
		c-0.003,0.516-0.118,0.92-0.342,1.257c-0.463,0.716-1.527,1.16-3.215,1.16c-4.263,0.016-11.803-2.896-19.374-7.942
		c-4.593-3.053-8.46-6.379-11.159-9.417c-2.71-3.025-4.204-5.816-4.177-7.531c0.001-0.514,0.117-0.92,0.342-1.257
		c0.462-0.715,1.528-1.159,3.214-1.158c4.266-0.017,11.805,2.895,19.374,7.942c4.593,3.052,8.46,6.379,11.16,9.416
		c0.088,0.1,0.171,0.193,0.255,0.293c0.266-0.306,0.594-0.555,0.967-0.729c-0.105-0.123-0.209-0.245-0.318-0.367
		c-2.789-3.137-6.724-6.515-11.393-9.62c-7.723-5.12-15.3-8.129-20.043-8.145c-1.86,0-3.395,0.474-4.223,1.698
		c-0.372,0.56-0.543,1.226-0.542,1.927c0.025,2.328,1.704,5.184,4.481,8.333c2.788,3.137,6.724,6.516,11.396,9.623
		c7.722,5.117,15.301,8.127,20.043,8.145c1.86-0.002,3.395-0.477,4.223-1.701c0.374-0.562,0.543-1.225,0.542-1.926
		C40.991,34.006,40.669,32.896,40.082,31.711z"/>
	<path fill="#002856" d="M26.511,7.207C25.82,5.067,25,3.316,24.045,2.06C23.098,0.812,21.962,0.005,20.659,0
		c-1.303,0.005-2.439,0.812-3.385,2.06c-0.147,0.195-0.294,0.408-0.436,0.627c0.407,0.091,0.782,0.271,1.103,0.516
		c0.098-0.145,0.196-0.282,0.296-0.411c0.839-1.098,1.665-1.587,2.424-1.582c0.757-0.004,1.586,0.484,2.423,1.582
		c1.25,1.632,2.385,4.511,3.174,8.158c0.793,3.647,1.26,8.066,1.26,12.827c0.001,6.347-0.832,12.09-2.156,16.199
		c-0.66,2.055-1.446,3.698-2.278,4.787c-0.837,1.098-1.666,1.588-2.423,1.581c-0.757,0.007-1.584-0.483-2.424-1.581
		c-1.249-1.633-2.386-4.512-3.175-8.157c-0.793-3.648-1.26-8.067-1.26-12.828c-0.001-5.96,0.734-11.389,1.923-15.433
		c-0.413-0.068-0.795-0.22-1.127-0.443c-0.26,0.875-0.5,1.807-0.715,2.794c-0.815,3.748-1.288,8.245-1.288,13.083
		c0.001,6.452,0.839,12.294,2.214,16.569c0.692,2.14,1.511,3.891,2.467,5.149c0.946,1.246,2.083,2.055,3.386,2.059
		c1.305-0.004,2.438-0.812,3.385-2.059c1.428-1.886,2.573-4.883,3.392-8.634c0.816-3.747,1.288-8.244,1.288-13.086
		C28.724,17.325,27.887,11.483,26.511,7.207z"/>
	<path fill="#002856" d="M14.694,5.5c0.001,0.832,0.673,1.503,1.505,1.505l0,0c0.831-0.001,1.502-0.673,1.505-1.505l0,0
		c-0.001-0.83-0.673-1.503-1.505-1.505l0,0C15.367,3.997,14.695,4.67,14.694,5.5L14.694,5.5z"/>
	<path fill="#002856" d="M24.063,26.855c-0.322-0.312-0.422-0.771-0.191-1.16c0.232-0.389,0.677-0.51,1.11-0.386l1.061,0.307
		c0.236-0.672,0.348-1.391,0.317-2.126l-1.101-0.011c-0.45,0.007-0.847-0.249-0.957-0.686c-0.111-0.436,0.118-0.842,0.51-1.059
		l0.971-0.534c-0.32-0.662-0.759-1.242-1.284-1.722l-0.783,0.769c-0.314,0.323-0.775,0.424-1.165,0.192
		c-0.385-0.232-0.508-0.679-0.385-1.109l0.308-1.063c-0.672-0.233-1.389-0.347-2.124-0.316l-0.011,1.103
		c0.007,0.45-0.249,0.846-0.687,0.956c-0.438,0.112-0.842-0.118-1.06-0.511l-0.534-0.971c-0.663,0.32-1.241,0.76-1.723,1.283
		l0.77,0.786c0.325,0.312,0.423,0.774,0.193,1.162c-0.232,0.389-0.681,0.509-1.11,0.386l-1.063-0.307
		c-0.234,0.671-0.345,1.39-0.317,2.124l1.105,0.011c0.45-0.004,0.846,0.252,0.955,0.688c0.11,0.438-0.12,0.842-0.512,1.06
		l-0.973,0.534c0.32,0.659,0.759,1.239,1.283,1.721l0.786-0.769c0.313-0.325,0.776-0.424,1.164-0.191
		c0.39,0.229,0.51,0.677,0.387,1.108l-0.309,1.063c0.672,0.234,1.391,0.348,2.126,0.315l0.011-1.102
		c-0.008-0.449,0.249-0.847,0.686-0.956c0.438-0.109,0.841,0.118,1.06,0.511l0.536,0.97c0.661-0.318,1.24-0.757,1.722-1.283
		L24.063,26.855z M21.16,26.014c-1.261,0.315-2.542-0.449-2.861-1.71c-0.315-1.263,0.45-2.545,1.712-2.863
		c1.263-0.317,2.543,0.448,2.861,1.71C23.19,24.415,22.422,25.695,21.16,26.014z"/>
	<circle fill="#002856" cx="38.049" cy="29.665" r="1.505"/>
</g>
</svg>
