<?xml version="1.0" encoding="UTF-8" standalone="no"?>
<svg
   xmlns:dc="http://purl.org/dc/elements/1.1/"
   xmlns:cc="http://creativecommons.org/ns#"
   xmlns:rdf="http://www.w3.org/1999/02/22-rdf-syntax-ns#"
   xmlns:svg="http://www.w3.org/2000/svg"
   xmlns="http://www.w3.org/2000/svg"
   xmlns:sodipodi="http://sodipodi.sourceforge.net/DTD/sodipodi-0.dtd"
   xmlns:inkscape="http://www.inkscape.org/namespaces/inkscape"
   version="1.1"
   viewBox="0 0 179.88855 168.65164"
   stroke-miterlimit="10"
   id="svg2"
   inkscape:version="0.48.3.1 r9886"
   width="100%"
   height="100%"
   sodipodi:docname="No sun.svg"
   style="fill:none;stroke:none">
  <metadata
     id="metadata33">
    <rdf:RDF>
      <cc:Work
         rdf:about="">
        <dc:format>image/svg+xml</dc:format>
        <dc:type
           rdf:resource="http://purl.org/dc/dcmitype/StillImage" />
        <dc:title></dc:title>
      </cc:Work>
    </rdf:RDF>
  </metadata>
  <defs
     id="defs31" />
  <sodipodi:namedview
     pagecolor="#ffffff"
     bordercolor="#666666"
     borderopacity="1"
     objecttolerance="10"
     gridtolerance="10"
     guidetolerance="10"
     inkscape:pageopacity="0"
     inkscape:pageshadow="2"
     inkscape:window-width="1920"
     inkscape:window-height="1006"
     id="namedview29"
     showgrid="false"
     fit-margin-top="0"
     fit-margin-left="0"
     fit-margin-right="0"
     fit-margin-bottom="0"
     inkscape:zoom="1.8541911"
     inkscape:cx="-127.72378"
     inkscape:cy="21.683406"
     inkscape:window-x="1920"
     inkscape:window-y="25"
     inkscape:window-maximized="1"
     inkscape:current-layer="svg2" />
  <clipPath
     id="p.0">
    <path
       d="M 0,0 960,0 960,720 0,720 0,0 z"
       clip-rule="nonzero"
       id="path5"
       inkscape:connector-curvature="0" />
  </clipPath>
  <path
     style="fill:#000000;fill-opacity:0;fill-rule:nonzero"
     inkscape:connector-curvature="0"
     id="path9"
     d="m -758.60703,-179.64744 960,0 0,720 -960,0 z" />
  <g
     id="g3769"
     transform="matrix(1.0409332,0,0,1.0409332,-277.78164,-0.05151833)">
    <path
       d="m 438.72677,81.0694 -34.487,11.488655 0,-22.97731 z M 413.6899,24.459872 397.98058,55.430165 380.63634,39.182948 z m -60.424,-23.4458361 12.2644,32.3056661 -24.5288,0 z M 292.83394,24.459872 325.8954,39.182948 308.55115,55.430165 z m -25.02892,56.609528 34.48701,-11.488655 0,22.97731 z m 25.02892,56.60209 15.71721,-30.96283 17.34425,16.24719 z m 60.43196,23.45328 -12.2644,-32.30568 24.5288,0 z m 60.424,-23.45328 -33.05356,-14.71564 17.34424,-16.24719 z M 310.53543,81.0694 c 0,-22.106668 19.13108,-40.027692 42.73047,-40.027692 23.59932,0 42.7304,17.921024 42.7304,40.027692 0,22.10667 -19.13108,40.02769 -42.7304,40.02769 -23.59939,0 -42.73047,-17.92102 -42.73047,-40.02769 z"
       id="path23"
       inkscape:connector-curvature="0"
       style="fill:#ffe599;fill-rule:nonzero" />
    <path
       d="m 438.72677,81.0694 -34.487,11.488655 0,-22.97731 z M 413.6899,24.459872 397.98058,55.430165 380.63634,39.182948 z m -60.424,-23.4458361 12.2644,32.3056661 -24.5288,0 z M 292.83394,24.459872 325.8954,39.182948 308.55115,55.430165 z m -25.02892,56.609528 34.48701,-11.488655 0,22.97731 z m 25.02892,56.60209 15.71721,-30.96283 17.34425,16.24719 z m 60.43196,23.45328 -12.2644,-32.30568 24.5288,0 z m 60.424,-23.45328 -33.05356,-14.71564 17.34424,-16.24719 z M 310.53543,81.0694 c 0,-22.106668 19.13108,-40.027692 42.73047,-40.027692 23.59932,0 42.7304,17.921024 42.7304,40.027692 0,22.10667 -19.13108,40.02769 -42.7304,40.02769 -23.59939,0 -42.73047,-17.92102 -42.73047,-40.02769 z"
       id="path25"
       inkscape:connector-curvature="0"
       style="stroke:#ff9900;stroke-width:1.92135274;stroke-linecap:butt;stroke-linejoin:round" />
  </g>
</svg>
